<svg xmlns="http://www.w3.org/2000/svg" xmlns:xlink="http://www.w3.org/1999/xlink" width="500" zoomAndPan="magnify" viewBox="0 0 375 374.999991" height="500" preserveAspectRatio="xMidYMid meet" version="1.0"><defs><g/></defs><g fill="#000000" fill-opacity="1"><g transform="translate(108.154853, 198.743526)"><g><path d="M 5.546875 -3.125 C 2.628906 -5.71875 1.171875 -9.046875 1.171875 -13.109375 C 1.171875 -17.171875 2.691406 -20.503906 5.734375 -23.109375 C 8.773438 -25.722656 12.53125 -27.03125 17 -27.03125 C 21.40625 -27.03125 25.117188 -25.71875 28.140625 -23.09375 C 31.160156 -20.46875 32.671875 -17.140625 32.671875 -13.109375 C 32.671875 -9.078125 31.191406 -5.753906 28.234375 -3.140625 C 25.285156 -0.535156 21.539062 0.765625 17 0.765625 C 12.289062 0.765625 8.472656 -0.53125 5.546875 -3.125 Z M 12.5625 -17.5625 C 11.382812 -16.40625 10.796875 -14.921875 10.796875 -13.109375 C 10.796875 -11.296875 11.359375 -9.816406 12.484375 -8.671875 C 13.617188 -7.535156 15.109375 -6.96875 16.953125 -6.96875 C 18.722656 -6.96875 20.179688 -7.546875 21.328125 -8.703125 C 22.472656 -9.867188 23.046875 -11.335938 23.046875 -13.109375 C 23.046875 -14.921875 22.457031 -16.40625 21.28125 -17.5625 C 20.101562 -18.71875 18.660156 -19.296875 16.953125 -19.296875 C 15.210938 -19.296875 13.75 -18.71875 12.5625 -17.5625 Z M 12.5625 -17.5625 "/></g></g></g><g fill="#000000" fill-opacity="1"><g transform="translate(137.183425, 198.743526)"><g><path d="M 3.078125 0 L 3.078125 -26.265625 L 12.140625 -26.265625 L 12.140625 -23.5 L 12.234375 -23.5 C 14.585938 -25.851562 17.097656 -27.03125 19.765625 -27.03125 C 21.054688 -27.03125 22.34375 -26.859375 23.625 -26.515625 C 24.90625 -26.179688 26.132812 -25.65625 27.3125 -24.9375 C 28.488281 -24.21875 29.441406 -23.203125 30.171875 -21.890625 C 30.910156 -20.578125 31.28125 -19.050781 31.28125 -17.3125 L 31.28125 0 L 22.21875 0 L 22.21875 -14.84375 C 22.21875 -16.207031 21.78125 -17.398438 20.90625 -18.421875 C 20.039062 -19.453125 18.910156 -19.96875 17.515625 -19.96875 C 16.148438 -19.96875 14.910156 -19.4375 13.796875 -18.375 C 12.691406 -17.320312 12.140625 -16.144531 12.140625 -14.84375 L 12.140625 0 Z M 3.078125 0 "/></g></g></g><g fill="#000000" fill-opacity="1"><g transform="translate(166.211997, 198.743526)"><g><path d="M 3.078125 0 L 3.078125 -44.03125 L 12.140625 -44.03125 L 12.140625 0 Z M 3.078125 0 "/></g></g></g><g fill="#000000" fill-opacity="1"><g transform="translate(176.604039, 198.743526)"><g><path d="M 22.984375 -26.265625 L 33.4375 -26.265625 L 12.796875 13.3125 L 2.359375 13.3125 L 11.421875 -4.09375 L -1.03125 -26.265625 L 9.421875 -26.265625 L 16.75 -12.796875 Z M 22.984375 -26.265625 "/></g></g></g><g fill="#000000" fill-opacity="1"><g transform="translate(204.199032, 198.743526)"><g><path d="M 5.546875 -3.125 C 2.628906 -5.71875 1.171875 -9.046875 1.171875 -13.109375 C 1.171875 -17.171875 2.691406 -20.503906 5.734375 -23.109375 C 8.773438 -25.722656 12.53125 -27.03125 17 -27.03125 C 21.40625 -27.03125 25.117188 -25.71875 28.140625 -23.09375 C 31.160156 -20.46875 32.671875 -17.140625 32.671875 -13.109375 C 32.671875 -9.078125 31.191406 -5.753906 28.234375 -3.140625 C 25.285156 -0.535156 21.539062 0.765625 17 0.765625 C 12.289062 0.765625 8.472656 -0.53125 5.546875 -3.125 Z M 12.5625 -17.5625 C 11.382812 -16.40625 10.796875 -14.921875 10.796875 -13.109375 C 10.796875 -11.296875 11.359375 -9.816406 12.484375 -8.671875 C 13.617188 -7.535156 15.109375 -6.96875 16.953125 -6.96875 C 18.722656 -6.96875 20.179688 -7.546875 21.328125 -8.703125 C 22.472656 -9.867188 23.046875 -11.335938 23.046875 -13.109375 C 23.046875 -14.921875 22.457031 -16.40625 21.28125 -17.5625 C 20.101562 -18.71875 18.660156 -19.296875 16.953125 -19.296875 C 15.210938 -19.296875 13.75 -18.71875 12.5625 -17.5625 Z M 12.5625 -17.5625 "/></g></g></g><g fill="#000000" fill-opacity="1"><g transform="translate(233.227599, 198.743526)"><g><path d="M 11.625 -26.265625 L 11.625 -13.78125 C 11.625 -11.175781 12.015625 -9.328125 12.796875 -8.234375 C 13.585938 -7.148438 14.921875 -6.609375 16.796875 -6.609375 C 18.671875 -6.609375 20 -7.148438 20.78125 -8.234375 C 21.570312 -9.328125 21.96875 -11.175781 21.96875 -13.78125 L 21.96875 -26.265625 L 31.03125 -26.265625 L 31.03125 -11.578125 C 31.03125 -7.203125 29.894531 -4.050781 27.625 -2.125 C 25.351562 -0.195312 21.742188 0.765625 16.796875 0.765625 C 11.847656 0.765625 8.238281 -0.195312 5.96875 -2.125 C 3.695312 -4.050781 2.5625 -7.203125 2.5625 -11.578125 L 2.5625 -26.265625 Z M 11.625 -26.265625 "/></g></g></g></svg>